<svg width="1791" height="1029" viewBox="0 0 1791 1029" fill="none" xmlns="http://www.w3.org/2000/svg">
<g filter="url(#filter0_d_4_40)">
<path d="M30 37C30 28.7157 36.7157 22 45 22H1746C1754.28 22 1761 28.7157 1761 37V888C1761 896.284 1754.28 903 1746 903H45C36.7157 903 30 896.284 30 888V37Z" fill="#88BEE2" fill-opacity="0.7"/>
<path d="M30 597H1761V974C1761 982.284 1754.28 989 1746 989H45C36.7157 989 30 982.284 30 974V597Z" fill="#674636"/>
<rect x="30" y="589" width="1731" height="16" fill="#AAB396"/>
<path d="M1345.2 601H1475.82V842C1475.82 850.284 1469.11 857 1460.82 857H1360.2C1351.92 857 1345.2 850.284 1345.2 842V601Z" fill="#A69B9B"/>
<path d="M111.672 690.193C111.926 681.913 118.843 675.466 127.121 675.795L1460.01 728.681C1468.29 729.01 1474.79 735.989 1474.54 744.269L1471.39 846.836C1471.13 855.117 1464.21 861.563 1455.94 861.235L123.047 808.348C114.769 808.02 108.265 801.041 108.519 792.761L111.672 690.193Z" fill="#A69B9B"/>
<path d="M1401.04 790H1475.82V960C1475.82 965.523 1471.35 970 1465.82 970H1411.04C1405.52 970 1401.04 965.523 1401.04 960V790Z" fill="#A69B9B"/>
<path d="M1401.04 790H1475.82V960C1475.82 965.523 1471.35 970 1465.82 970H1411.04C1405.52 970 1401.04 965.523 1401.04 960V790Z" fill="#A69B9B"/>
<path d="M1401.04 905H1475.82V960C1475.82 965.523 1471.35 970 1465.82 970H1411.04C1405.52 970 1401.04 965.523 1401.04 960V905Z" fill="#548CB1"/>
<ellipse cx="1410.51" cy="668" rx="65.3113" ry="63" fill="#B25D5D"/>
<path d="M1407.95 609.219C1409.12 607.296 1411.91 607.296 1413.08 609.219L1465.17 694.942C1466.38 696.941 1464.94 699.5 1462.6 699.5H1358.42C1356.08 699.5 1354.64 696.941 1355.86 694.942L1407.95 609.219Z" fill="#694C4C"/>
<path d="M1407.95 609.219C1409.12 607.296 1411.91 607.296 1413.08 609.219L1465.17 694.942C1466.38 696.941 1464.94 699.5 1462.6 699.5H1358.42C1356.08 699.5 1354.64 696.941 1355.86 694.942L1407.95 609.219Z" fill="#694C4C"/>
<path d="M1407.95 609.219C1409.12 607.296 1411.91 607.296 1413.08 609.219L1465.17 694.942C1466.38 696.941 1464.94 699.5 1462.6 699.5H1358.42C1356.08 699.5 1354.64 696.941 1355.86 694.942L1407.95 609.219Z" fill="#694C4C"/>
<path d="M1407.95 609.219C1409.12 607.296 1411.91 607.296 1413.08 609.219L1465.17 694.942C1466.38 696.941 1464.94 699.5 1462.6 699.5H1358.42C1356.08 699.5 1354.64 696.941 1355.86 694.942L1407.95 609.219Z" fill="#694C4C"/>
<path d="M1035.31 663V628.625H1041.95V663H1035.31ZM1044.57 663V633.703H1051.4V637.102C1051.72 635.904 1052.25 634.986 1053.01 634.348C1053.76 633.71 1054.87 633.391 1056.33 633.391C1057.5 633.391 1058.49 633.664 1059.31 634.211C1060.15 634.745 1060.73 635.454 1061.07 636.34C1061.61 635.376 1062.23 634.647 1062.95 634.152C1063.68 633.645 1064.71 633.391 1066.05 633.391C1067.68 633.391 1068.93 633.742 1069.8 634.445C1070.69 635.135 1071.3 636.099 1071.64 637.336C1071.99 638.56 1072.17 639.979 1072.17 641.594V663H1065.19V641.477C1065.19 639.589 1064.71 638.645 1063.75 638.645C1063.24 638.645 1062.85 638.82 1062.58 639.172C1062.3 639.51 1062.11 639.934 1062.01 640.441C1061.91 640.949 1061.85 641.457 1061.85 641.965V663H1054.88V641.477C1054.88 640.865 1054.8 640.253 1054.65 639.641C1054.5 639.029 1054.13 638.723 1053.51 638.723C1052.99 638.723 1052.59 638.911 1052.3 639.289C1052.02 639.667 1051.82 640.135 1051.72 640.695C1051.61 641.242 1051.56 641.783 1051.56 642.316V663H1044.57ZM1074.92 667.883V633.703H1082.03V636.828C1082.46 635.747 1083.05 634.908 1083.81 634.309C1084.57 633.697 1085.67 633.391 1087.09 633.391C1089 633.391 1090.35 634.087 1091.13 635.48C1091.93 636.874 1092.32 638.697 1092.32 640.949V655.363C1092.32 656.861 1092.11 658.215 1091.68 659.426C1091.26 660.624 1090.6 661.574 1089.69 662.277C1088.79 662.967 1087.61 663.312 1086.15 663.312C1084.25 663.312 1082.88 662.167 1082.03 659.875V667.883H1074.92ZM1083.69 657.863C1084.42 657.863 1084.85 657.499 1085 656.77C1085.15 656.04 1085.23 655.142 1085.23 654.074V642.629C1085.23 641.548 1085.15 640.65 1085 639.934C1084.85 639.204 1084.42 638.84 1083.69 638.84C1082.93 638.84 1082.47 639.211 1082.28 639.953C1082.11 640.682 1082.03 641.574 1082.03 642.629V654.074C1082.03 655.129 1082.11 656.027 1082.28 656.77C1082.47 657.499 1082.93 657.863 1083.69 657.863ZM1100.64 663.312C1099.08 663.312 1097.88 662.987 1097.05 662.336C1096.23 661.685 1095.67 660.78 1095.37 659.621C1095.07 658.449 1094.92 657.082 1094.92 655.52V633.703H1101.95V654.699C1101.95 655.871 1102.04 656.691 1102.22 657.16C1102.41 657.616 1102.84 657.844 1103.51 657.844C1104.24 657.844 1104.7 657.518 1104.88 656.867C1105.08 656.216 1105.17 655.376 1105.17 654.348V633.703H1112.15V663H1105.15V659.875C1104.71 660.995 1104.18 661.848 1103.55 662.434C1102.94 663.02 1101.97 663.312 1100.64 663.312ZM1114.96 663V628.625H1122.07V663H1114.96ZM1132.91 663.312C1127.13 663.312 1124.24 660.383 1124.24 654.523V652.199H1131.27V655.637C1131.27 656.301 1131.4 656.822 1131.66 657.199C1131.92 657.577 1132.34 657.766 1132.91 657.766C1133.92 657.766 1134.43 657.004 1134.43 655.48C1134.43 654.204 1134.16 653.254 1133.63 652.629C1133.1 651.991 1132.45 651.379 1131.68 650.793L1127.95 647.922C1126.78 647.01 1125.88 646.047 1125.27 645.031C1124.66 644.016 1124.35 642.603 1124.35 640.793C1124.35 639.113 1124.75 637.727 1125.54 636.633C1126.35 635.539 1127.41 634.725 1128.73 634.191C1130.06 633.658 1131.49 633.391 1133.03 633.391C1138.7 633.391 1141.54 636.223 1141.54 641.887V642.434H1134.31V641.32C1134.31 640.734 1134.21 640.168 1134 639.621C1133.81 639.074 1133.42 638.801 1132.83 638.801C1131.84 638.801 1131.35 639.322 1131.35 640.363C1131.35 641.418 1131.76 642.245 1132.6 642.844L1136.93 646.008C1138.29 646.984 1139.42 648.143 1140.33 649.484C1141.25 650.826 1141.72 652.609 1141.72 654.836C1141.72 657.596 1140.93 659.699 1139.35 661.145C1137.79 662.59 1135.64 663.312 1132.91 663.312ZM1152.38 663.312C1146.55 663.312 1143.63 660.285 1143.63 654.23V642.473C1143.63 639.712 1144.41 637.512 1145.96 635.871C1147.5 634.217 1149.65 633.391 1152.38 633.391C1155.13 633.391 1157.28 634.217 1158.83 635.871C1160.38 637.512 1161.15 639.712 1161.15 642.473V654.23C1161.15 660.285 1158.23 663.312 1152.38 663.312ZM1152.38 657.922C1152.97 657.922 1153.38 657.714 1153.63 657.297C1153.89 656.867 1154.02 656.327 1154.02 655.676V641.359C1154.02 639.654 1153.47 638.801 1152.38 638.801C1151.29 638.801 1150.74 639.654 1150.74 641.359V655.676C1150.74 656.327 1150.86 656.867 1151.11 657.297C1151.37 657.714 1151.79 657.922 1152.38 657.922ZM1163.75 663V633.703H1170.86V636.965C1171.2 635.832 1171.79 634.947 1172.65 634.309C1173.51 633.671 1174.59 633.352 1175.9 633.352V639.191C1175.32 639.191 1174.64 639.257 1173.85 639.387C1173.05 639.504 1172.35 639.673 1171.76 639.895C1171.16 640.103 1170.86 640.337 1170.86 640.598V663H1163.75ZM1192.75 663.312C1191.4 663.312 1190.32 663.065 1189.53 662.57C1188.74 662.076 1188.14 661.392 1187.75 660.52C1187.36 659.647 1187.1 658.625 1186.97 657.453C1186.85 656.281 1186.79 655.025 1186.79 653.684V640.949C1186.79 638.697 1187.19 636.874 1187.99 635.48C1188.79 634.087 1190.15 633.391 1192.07 633.391C1193.49 633.391 1194.57 633.697 1195.33 634.309C1196.1 634.908 1196.69 635.747 1197.11 636.828V628.625H1204.22V663H1197.11V659.895C1196.72 660.949 1196.2 661.783 1195.54 662.395C1194.91 663.007 1193.98 663.312 1192.75 663.312ZM1195.43 657.844C1196.09 657.844 1196.53 657.577 1196.76 657.043C1196.99 656.509 1197.11 655.552 1197.11 654.172V641.848C1197.11 641.158 1197 640.48 1196.79 639.816C1196.6 639.139 1196.16 638.801 1195.47 638.801C1194.71 638.801 1194.24 639.12 1194.04 639.758C1193.85 640.396 1193.75 641.092 1193.75 641.848V654.172C1193.75 656.62 1194.31 657.844 1195.43 657.844ZM1215.12 663.312C1213.03 663.312 1211.37 662.922 1210.13 662.141C1208.9 661.359 1208.01 660.233 1207.48 658.762C1206.94 657.29 1206.68 655.52 1206.68 653.449V641.672C1206.68 638.951 1207.46 636.893 1209.02 635.5C1210.58 634.094 1212.73 633.391 1215.47 633.391C1221.09 633.391 1223.9 636.151 1223.9 641.672V643.801C1223.9 646.379 1223.88 648.111 1223.83 648.996H1213.67V654.66C1213.67 655.181 1213.7 655.695 1213.77 656.203C1213.83 656.698 1213.98 657.108 1214.2 657.434C1214.43 657.759 1214.8 657.922 1215.31 657.922C1216.04 657.922 1216.5 657.609 1216.68 656.984C1216.86 656.346 1216.95 655.52 1216.95 654.504V651.691H1223.9V653.352C1223.9 655.539 1223.63 657.375 1223.08 658.859C1222.55 660.331 1221.64 661.444 1220.35 662.199C1219.07 662.941 1217.33 663.312 1215.12 663.312ZM1213.63 645.52H1216.95V641.574C1216.95 640.52 1216.82 639.764 1216.56 639.309C1216.3 638.84 1215.91 638.605 1215.39 638.605C1214.83 638.605 1214.39 638.827 1214.08 639.27C1213.78 639.712 1213.63 640.48 1213.63 641.574V645.52ZM1241.15 663.312C1239.52 663.312 1238.28 662.935 1237.42 662.18C1236.57 661.424 1235.99 660.389 1235.68 659.074C1235.37 657.759 1235.21 656.268 1235.21 654.602C1235.21 652.818 1235.39 651.359 1235.74 650.227C1236.09 649.081 1236.69 648.143 1237.54 647.414C1238.4 646.685 1239.57 646.066 1241.07 645.559L1245.41 644.074V641.066C1245.41 639.491 1244.89 638.703 1243.87 638.703C1242.93 638.703 1242.46 639.341 1242.46 640.617V642.375H1235.66C1235.65 642.271 1235.64 642.141 1235.64 641.984C1235.64 641.815 1235.64 641.626 1235.64 641.418C1235.64 638.501 1236.33 636.438 1237.69 635.227C1239.07 634.003 1241.25 633.391 1244.24 633.391C1245.8 633.391 1247.2 633.671 1248.44 634.23C1249.67 634.777 1250.65 635.591 1251.37 636.672C1252.09 637.753 1252.46 639.087 1252.46 640.676V663H1245.51V659.523C1245.17 660.747 1244.61 661.685 1243.83 662.336C1243.04 662.987 1242.15 663.312 1241.15 663.312ZM1243.9 657.883C1244.48 657.883 1244.87 657.642 1245.08 657.16C1245.28 656.678 1245.39 656.158 1245.39 655.598V647.434C1244.43 647.824 1243.68 648.319 1243.14 648.918C1242.61 649.504 1242.34 650.37 1242.34 651.516V655.285C1242.34 657.017 1242.86 657.883 1243.9 657.883ZM1255.15 663V633.703H1262.26V636.965C1262.6 635.832 1263.2 634.947 1264.06 634.309C1264.92 633.671 1266 633.352 1267.3 633.352V639.191C1266.73 639.191 1266.05 639.257 1265.25 639.387C1264.46 639.504 1263.76 639.673 1263.16 639.895C1262.56 640.103 1262.26 640.337 1262.26 640.598V663H1255.15Z" fill="#FFF8E8"/>
<line x1="1276.4" y1="650.5" x2="1319.28" y2="650.5" stroke="#FFF8E8" stroke-width="5"/>
<line x1="1276.4" y1="650.5" x2="1319.28" y2="650.5" stroke="#FFF8E8" stroke-width="5"/>
<line x1="1276.4" y1="650.5" x2="1319.28" y2="650.5" stroke="#FFF8E8" stroke-width="5"/>
<line x1="1330.24" y1="911.5" x2="1373.12" y2="911.5" stroke="#FFF8E8" stroke-width="5"/>
<line x1="1330.24" y1="911.5" x2="1373.12" y2="911.5" stroke="#FFF8E8" stroke-width="5"/>
<line x1="1330.24" y1="911.5" x2="1373.12" y2="911.5" stroke="#FFF8E8" stroke-width="5"/>
<path d="M428.335 935V907.227H424.253V900.625H439.292V907.227H435.21V935H428.335ZM446.733 935.312C445.171 935.312 443.973 934.987 443.14 934.336C442.319 933.685 441.759 932.78 441.46 931.621C441.16 930.449 441.011 929.082 441.011 927.52V905.703H448.042V926.699C448.042 927.871 448.133 928.691 448.315 929.16C448.498 929.616 448.927 929.844 449.604 929.844C450.334 929.844 450.789 929.518 450.972 928.867C451.167 928.216 451.265 927.376 451.265 926.348V905.703H458.237V935H451.245V931.875C450.802 932.995 450.269 933.848 449.644 934.434C449.032 935.02 448.062 935.312 446.733 935.312ZM472.749 935.312C471.603 935.312 470.672 935.033 469.956 934.473C469.24 933.9 468.667 933.034 468.237 931.875V935H461.128V900.625H468.237V908.828C468.667 907.747 469.259 906.908 470.015 906.309C470.783 905.697 471.877 905.391 473.296 905.391C475.21 905.391 476.558 906.087 477.339 907.48C478.133 908.874 478.53 910.697 478.53 912.949V927.363C478.53 928.861 478.322 930.215 477.905 931.426C477.502 932.624 476.87 933.574 476.011 934.277C475.164 934.967 474.077 935.312 472.749 935.312ZM469.858 929.863C470.601 929.863 471.05 929.499 471.206 928.77C471.362 928.04 471.44 927.142 471.44 926.074V914.629C471.44 913.548 471.362 912.65 471.206 911.934C471.05 911.204 470.607 910.84 469.878 910.84C469.123 910.84 468.66 911.211 468.491 911.953C468.322 912.682 468.237 913.574 468.237 914.629V926.074C468.237 927.129 468.322 928.027 468.491 928.77C468.66 929.499 469.116 929.863 469.858 929.863ZM489.644 935.312C483.81 935.312 480.894 932.285 480.894 926.23V914.473C480.894 911.712 481.668 909.512 483.218 907.871C484.767 906.217 486.909 905.391 489.644 905.391C492.391 905.391 494.539 906.217 496.089 907.871C497.638 909.512 498.413 911.712 498.413 914.473V926.23C498.413 932.285 495.49 935.312 489.644 935.312ZM489.644 929.922C490.229 929.922 490.646 929.714 490.894 929.297C491.154 928.867 491.284 928.327 491.284 927.676V913.359C491.284 911.654 490.737 910.801 489.644 910.801C488.55 910.801 488.003 911.654 488.003 913.359V927.676C488.003 928.327 488.127 928.867 488.374 929.297C488.634 929.714 489.058 929.922 489.644 929.922ZM516.147 935.312C514.793 935.312 513.719 935.065 512.925 934.57C512.131 934.076 511.538 933.392 511.147 932.52C510.757 931.647 510.496 930.625 510.366 929.453C510.249 928.281 510.19 927.025 510.19 925.684V912.949C510.19 910.697 510.588 908.874 511.382 907.48C512.189 906.087 513.55 905.391 515.464 905.391C516.883 905.391 517.97 905.697 518.726 906.309C519.494 906.908 520.086 907.747 520.503 908.828V900.625H527.612V935H520.503V931.895C520.112 932.949 519.591 933.783 518.94 934.395C518.302 935.007 517.371 935.312 516.147 935.312ZM518.823 929.844C519.487 929.844 519.93 929.577 520.151 929.043C520.386 928.509 520.503 927.552 520.503 926.172V913.848C520.503 913.158 520.399 912.48 520.19 911.816C519.995 911.139 519.552 910.801 518.862 910.801C518.107 910.801 517.632 911.12 517.437 911.758C517.241 912.396 517.144 913.092 517.144 913.848V926.172C517.144 928.62 517.703 929.844 518.823 929.844ZM538.511 935.312C536.427 935.312 534.767 934.922 533.53 934.141C532.293 933.359 531.408 932.233 530.874 930.762C530.34 929.29 530.073 927.52 530.073 925.449V913.672C530.073 910.951 530.854 908.893 532.417 907.5C533.979 906.094 536.128 905.391 538.862 905.391C544.487 905.391 547.3 908.151 547.3 913.672V915.801C547.3 918.379 547.274 920.111 547.222 920.996H537.065V926.66C537.065 927.181 537.098 927.695 537.163 928.203C537.228 928.698 537.371 929.108 537.593 929.434C537.827 929.759 538.198 929.922 538.706 929.922C539.435 929.922 539.891 929.609 540.073 928.984C540.256 928.346 540.347 927.52 540.347 926.504V923.691H547.3V925.352C547.3 927.539 547.026 929.375 546.479 930.859C545.946 932.331 545.034 933.444 543.745 934.199C542.469 934.941 540.724 935.312 538.511 935.312ZM537.026 917.52H540.347V913.574C540.347 912.52 540.216 911.764 539.956 911.309C539.696 910.84 539.305 910.605 538.784 910.605C538.224 910.605 537.788 910.827 537.476 911.27C537.176 911.712 537.026 912.48 537.026 913.574V917.52ZM564.546 935.312C562.918 935.312 561.675 934.935 560.815 934.18C559.969 933.424 559.39 932.389 559.077 931.074C558.765 929.759 558.608 928.268 558.608 926.602C558.608 924.818 558.784 923.359 559.136 922.227C559.487 921.081 560.086 920.143 560.933 919.414C561.792 918.685 562.97 918.066 564.468 917.559L568.804 916.074V913.066C568.804 911.491 568.289 910.703 567.261 910.703C566.323 910.703 565.854 911.341 565.854 912.617V914.375H559.058C559.045 914.271 559.038 914.141 559.038 913.984C559.038 913.815 559.038 913.626 559.038 913.418C559.038 910.501 559.722 908.438 561.089 907.227C562.469 906.003 564.65 905.391 567.632 905.391C569.194 905.391 570.594 905.671 571.831 906.23C573.068 906.777 574.045 907.591 574.761 908.672C575.49 909.753 575.854 911.087 575.854 912.676V935H568.901V931.523C568.563 932.747 568.003 933.685 567.222 934.336C566.44 934.987 565.549 935.312 564.546 935.312ZM567.3 929.883C567.873 929.883 568.263 929.642 568.472 929.16C568.68 928.678 568.784 928.158 568.784 927.598V919.434C567.821 919.824 567.072 920.319 566.538 920.918C566.004 921.504 565.737 922.37 565.737 923.516V927.285C565.737 929.017 566.258 929.883 567.3 929.883ZM578.55 935V905.703H585.659V908.965C585.998 907.832 586.597 906.947 587.456 906.309C588.315 905.671 589.396 905.352 590.698 905.352V911.191C590.125 911.191 589.442 911.257 588.647 911.387C587.853 911.504 587.157 911.673 586.558 911.895C585.959 912.103 585.659 912.337 585.659 912.598V935H578.55Z" fill="#FFF8E8"/>
<line x1="510.106" y1="892" x2="510.106" y2="842" stroke="#FFF8E8" stroke-width="5"/>
<path d="M348.638 472.312C346.151 472.312 344.146 471.538 342.623 469.988C341.112 468.439 340.357 466.271 340.357 463.484V447.625C340.357 444.292 341.015 441.74 342.33 439.969C343.658 438.198 345.813 437.312 348.795 437.312C350.422 437.312 351.868 437.612 353.131 438.211C354.407 438.81 355.409 439.708 356.138 440.906C356.868 442.091 357.232 443.589 357.232 445.398V451.336H350.396V446.258C350.396 445.229 350.266 444.539 350.006 444.188C349.745 443.823 349.342 443.641 348.795 443.641C348.157 443.641 347.727 443.875 347.506 444.344C347.284 444.799 347.174 445.411 347.174 446.18V463.387C347.174 464.337 347.31 465.008 347.584 465.398C347.87 465.789 348.274 465.984 348.795 465.984C349.381 465.984 349.791 465.743 350.025 465.262C350.273 464.78 350.396 464.155 350.396 463.387V457.195H357.31V463.699C357.31 466.72 356.549 468.914 355.025 470.281C353.502 471.635 351.373 472.312 348.638 472.312ZM359.498 472V437.625H366.685V445.613C367.063 444.52 367.642 443.712 368.424 443.191C369.205 442.658 370.116 442.391 371.158 442.391C373.189 442.391 374.667 443.029 375.592 444.305C376.516 445.581 376.978 447.293 376.978 449.441V472H369.908V449.891C369.908 449.253 369.771 448.732 369.498 448.328C369.237 447.924 368.821 447.723 368.248 447.723C367.766 447.723 367.382 447.931 367.095 448.348C366.822 448.764 366.685 449.259 366.685 449.832V472H359.498ZM385.064 472.312C383.437 472.312 382.193 471.935 381.334 471.18C380.487 470.424 379.908 469.389 379.595 468.074C379.283 466.759 379.127 465.268 379.127 463.602C379.127 461.818 379.302 460.359 379.654 459.227C380.006 458.081 380.605 457.143 381.451 456.414C382.31 455.685 383.489 455.066 384.986 454.559L389.322 453.074V450.066C389.322 448.491 388.808 447.703 387.779 447.703C386.842 447.703 386.373 448.341 386.373 449.617V451.375H379.576C379.563 451.271 379.556 451.141 379.556 450.984C379.556 450.815 379.556 450.626 379.556 450.418C379.556 447.501 380.24 445.438 381.607 444.227C382.987 443.003 385.168 442.391 388.15 442.391C389.713 442.391 391.112 442.671 392.349 443.23C393.586 443.777 394.563 444.591 395.279 445.672C396.008 446.753 396.373 448.087 396.373 449.676V472H389.42V468.523C389.081 469.747 388.521 470.685 387.74 471.336C386.959 471.987 386.067 472.312 385.064 472.312ZM387.818 466.883C388.391 466.883 388.782 466.642 388.99 466.16C389.198 465.678 389.302 465.158 389.302 464.598V456.434C388.339 456.824 387.59 457.319 387.056 457.918C386.523 458.504 386.256 459.37 386.256 460.516V464.285C386.256 466.017 386.776 466.883 387.818 466.883ZM399.068 472V442.703H405.904V446.102C406.217 444.904 406.75 443.986 407.506 443.348C408.261 442.71 409.368 442.391 410.826 442.391C411.998 442.391 412.994 442.664 413.814 443.211C414.648 443.745 415.233 444.454 415.572 445.34C416.106 444.376 416.731 443.647 417.447 443.152C418.176 442.645 419.211 442.391 420.552 442.391C422.18 442.391 423.43 442.742 424.302 443.445C425.188 444.135 425.8 445.099 426.138 446.336C426.49 447.56 426.666 448.979 426.666 450.594V472H419.693V450.477C419.693 448.589 419.211 447.645 418.248 447.645C417.74 447.645 417.349 447.82 417.076 448.172C416.802 448.51 416.614 448.934 416.51 449.441C416.405 449.949 416.353 450.457 416.353 450.965V472H409.381V450.477C409.381 449.865 409.302 449.253 409.146 448.641C409.003 448.029 408.625 447.723 408.013 447.723C407.493 447.723 407.089 447.911 406.802 448.289C406.516 448.667 406.321 449.135 406.217 449.695C406.112 450.242 406.06 450.783 406.06 451.316V472H399.068ZM429.381 440.906V435.086H436.373V440.906H429.381ZM429.381 472V442.703H436.373V472H429.381ZM439.146 472V442.703H446.138V446.434C446.399 445.314 446.881 444.363 447.584 443.582C448.3 442.788 449.289 442.391 450.552 442.391C452.584 442.391 454.055 443.016 454.967 444.266C455.891 445.516 456.353 447.228 456.353 449.402V472H449.459V450.125C449.459 449.552 449.342 449.025 449.107 448.543C448.873 448.048 448.469 447.801 447.896 447.801C447.362 447.801 446.965 447.99 446.705 448.367C446.457 448.732 446.301 449.194 446.236 449.754C446.171 450.301 446.138 450.848 446.138 451.395V472H439.146ZM467.31 472.312C465.227 472.312 463.567 471.922 462.33 471.141C461.093 470.359 460.207 469.233 459.674 467.762C459.14 466.29 458.873 464.52 458.873 462.449V450.672C458.873 447.951 459.654 445.893 461.217 444.5C462.779 443.094 464.927 442.391 467.662 442.391C473.287 442.391 476.099 445.151 476.099 450.672V452.801C476.099 455.379 476.073 457.111 476.021 457.996H465.865V463.66C465.865 464.181 465.898 464.695 465.963 465.203C466.028 465.698 466.171 466.108 466.392 466.434C466.627 466.759 466.998 466.922 467.506 466.922C468.235 466.922 468.691 466.609 468.873 465.984C469.055 465.346 469.146 464.52 469.146 463.504V460.691H476.099V462.352C476.099 464.539 475.826 466.375 475.279 467.859C474.745 469.331 473.834 470.444 472.545 471.199C471.269 471.941 469.524 472.312 467.31 472.312ZM465.826 454.52H469.146V450.574C469.146 449.52 469.016 448.764 468.756 448.309C468.495 447.84 468.105 447.605 467.584 447.605C467.024 447.605 466.588 447.827 466.275 448.27C465.976 448.712 465.826 449.48 465.826 450.574V454.52ZM463.033 441.668V437.312L472.31 433.055V439.832L463.033 441.668Z" fill="#FFF8E8"/>
<line y1="-2.5" x2="49.856" y2="-2.5" transform="matrix(1 0.00087203 -0.000445162 1 282.271 458)" stroke="#FFF8E8" stroke-width="5"/>
<path d="M121.908 410.963H230.929V435.605H121.908V410.963Z" fill="#A69B9B"/>
<path d="M118.744 385C118.744 382.239 120.982 380 123.744 380H229.333C232.094 380 234.333 382.239 234.333 385V413.266H118.744V385Z" fill="#D9D9D9"/>
<path d="M110.086 449.158H245.378V789C245.378 797.284 238.662 804 230.378 804H125.086C116.802 804 110.086 797.284 110.086 789V449.158Z" fill="#A69B9B"/>
<path d="M136.692 376C136.692 374.895 137.587 374 138.692 374H217.443C218.548 374 219.443 374.895 219.443 376V380.16H136.692V376Z" fill="#A69B9B"/>
<rect x="110.086" y="510.762" width="135.292" height="41.8911" fill="#E0D194"/>
<path d="M108.772 439.829C108.772 437.068 111.011 434.829 113.772 434.829H240.378C243.139 434.829 245.378 437.068 245.378 439.829V482.024H108.772V439.829Z" fill="#D9D9D9"/>
<path d="M148.25 534.62L145.82 534.59V525.08C145.82 524.68 145.94 524.36 146.18 524.12C146.42 523.88 146.74 523.76 147.14 523.76C147.36 523.76 147.58 523.79 147.8 523.85C148.02 523.91 148.17 523.96 148.25 524V534.62ZM147.14 534.14V532.07H156.05C156.11 532.17 156.17 532.31 156.23 532.49C156.29 532.65 156.32 532.83 156.32 533.03C156.32 533.35 156.24 533.62 156.08 533.84C155.92 534.04 155.69 534.14 155.39 534.14H147.14ZM147.14 525.83V523.76H157.1C157.16 523.84 157.22 523.97 157.28 524.15C157.34 524.33 157.37 524.52 157.37 524.72C157.37 525.04 157.29 525.31 157.13 525.53C156.97 525.73 156.74 525.83 156.44 525.83H147.14ZM145.82 531.32H148.28V541.97C148.18 541.99 148.02 542.02 147.8 542.06C147.6 542.12 147.39 542.15 147.17 542.15C146.73 542.15 146.39 542.06 146.15 541.88C145.93 541.7 145.82 541.43 145.82 541.07V531.32ZM160.454 523.76C160.454 523.34 160.604 522.99 160.904 522.71C161.204 522.41 161.574 522.26 162.014 522.26C162.474 522.26 162.844 522.41 163.124 522.71C163.404 522.99 163.544 523.34 163.544 523.76C163.544 524.18 163.404 524.54 163.124 524.84C162.844 525.12 162.474 525.26 162.014 525.26C161.574 525.26 161.204 525.12 160.904 524.84C160.604 524.54 160.454 524.18 160.454 523.76ZM160.814 534.08H163.214V541.94C163.114 541.98 162.964 542.02 162.764 542.06C162.564 542.12 162.344 542.15 162.104 542.15C161.684 542.15 161.364 542.07 161.144 541.91C160.924 541.73 160.814 541.45 160.814 541.07V534.08ZM163.214 535.25H160.814V528.2C160.914 528.16 161.064 528.12 161.264 528.08C161.484 528.02 161.714 527.99 161.954 527.99C162.374 527.99 162.684 528.08 162.884 528.26C163.104 528.42 163.214 528.7 163.214 529.1V535.25ZM168.198 534.08L170.598 534.44V541.94C170.498 541.98 170.348 542.02 170.148 542.06C169.948 542.12 169.728 542.15 169.488 542.15C169.068 542.15 168.748 542.07 168.528 541.91C168.308 541.73 168.198 541.45 168.198 541.07V534.08ZM170.598 535.58L168.198 535.25V522.56C168.298 522.52 168.448 522.48 168.648 522.44C168.868 522.38 169.088 522.35 169.308 522.35C169.748 522.35 170.068 522.44 170.268 522.62C170.488 522.78 170.598 523.05 170.598 523.43V535.58ZM175.371 534.08H177.771V538.22C177.771 539.02 178.001 539.59 178.461 539.93C178.921 540.25 179.551 540.41 180.351 540.41C180.691 540.41 181.071 540.35 181.491 540.23C181.911 540.11 182.261 539.97 182.541 539.81C182.661 539.93 182.771 540.08 182.871 540.26C182.971 540.44 183.021 540.65 183.021 540.89C183.021 541.33 182.761 541.69 182.241 541.97C181.721 542.25 181.001 542.39 180.081 542.39C178.681 542.39 177.541 542.08 176.661 541.46C175.801 540.84 175.371 539.81 175.371 538.37V534.08ZM176.601 530.42V528.44H182.691C182.751 528.52 182.811 528.65 182.871 528.83C182.931 529.01 182.961 529.2 182.961 529.4C182.961 529.72 182.881 529.97 182.721 530.15C182.561 530.33 182.341 530.42 182.061 530.42H176.601ZM177.771 534.98H175.371V524.12C175.471 524.08 175.621 524.04 175.821 524C176.041 523.94 176.271 523.91 176.511 523.91C176.931 523.91 177.241 524 177.441 524.18C177.661 524.34 177.771 524.61 177.771 524.99V534.98ZM188.903 530.72V535.46H186.503V530.9C186.503 530.44 186.583 530.08 186.743 529.82C186.923 529.54 187.213 529.27 187.613 529.01C188.133 528.67 188.843 528.38 189.743 528.14C190.643 527.88 191.643 527.75 192.743 527.75C194.343 527.75 195.143 528.15 195.143 528.95C195.143 529.15 195.113 529.34 195.053 529.52C194.993 529.68 194.913 529.82 194.813 529.94C194.613 529.9 194.353 529.86 194.033 529.82C193.713 529.78 193.393 529.76 193.073 529.76C192.153 529.76 191.343 529.86 190.643 530.06C189.943 530.24 189.363 530.46 188.903 530.72ZM186.503 534.08L188.903 534.44V541.94C188.803 541.98 188.653 542.02 188.453 542.06C188.253 542.12 188.033 542.15 187.793 542.15C187.373 542.15 187.053 542.07 186.833 541.91C186.613 541.73 186.503 541.45 186.503 541.07V534.08ZM210.535 535.07C210.535 536.55 210.255 537.84 209.695 538.94C209.135 540.04 208.345 540.89 207.325 541.49C206.305 542.09 205.105 542.39 203.725 542.39C202.345 542.39 201.135 542.09 200.095 541.49C199.075 540.89 198.285 540.04 197.725 538.94C197.165 537.84 196.885 536.55 196.885 535.07C196.885 533.57 197.165 532.28 197.725 531.2C198.305 530.1 199.105 529.25 200.125 528.65C201.165 528.05 202.365 527.75 203.725 527.75C205.085 527.75 206.275 528.05 207.295 528.65C208.315 529.25 209.105 530.1 209.665 531.2C210.245 532.28 210.535 533.57 210.535 535.07ZM203.725 529.73C202.385 529.73 201.315 530.21 200.515 531.17C199.735 532.11 199.345 533.41 199.345 535.07C199.345 536.75 199.725 538.06 200.485 539C201.265 539.94 202.345 540.41 203.725 540.41C205.085 540.41 206.145 539.94 206.905 539C207.685 538.04 208.075 536.73 208.075 535.07C208.075 533.41 207.685 532.11 206.905 531.17C206.145 530.21 205.085 529.73 203.725 529.73Z" fill="black"/>
<path d="M1022.66 926V891.625H1031.74C1033.64 891.625 1035.15 892.048 1036.25 892.895C1037.37 893.741 1038.17 894.945 1038.66 896.508C1039.14 898.07 1039.38 899.932 1039.38 902.094C1039.38 904.177 1039.18 905.993 1038.77 907.543C1038.37 909.079 1037.65 910.271 1036.61 911.117C1035.58 911.964 1034.11 912.387 1032.21 912.387H1029.42V926H1022.66ZM1029.42 906.215H1029.81C1031.09 906.215 1031.87 905.857 1032.15 905.141C1032.44 904.424 1032.58 903.37 1032.58 901.977C1032.58 900.674 1032.44 899.672 1032.15 898.969C1031.88 898.253 1031.22 897.895 1030.18 897.895H1029.42V906.215ZM1049.97 926.312C1044.13 926.312 1041.22 923.285 1041.22 917.23V905.473C1041.22 902.712 1041.99 900.512 1043.54 898.871C1045.09 897.217 1047.23 896.391 1049.97 896.391C1052.71 896.391 1054.86 897.217 1056.41 898.871C1057.96 900.512 1058.73 902.712 1058.73 905.473V917.23C1058.73 923.285 1055.81 926.312 1049.97 926.312ZM1049.97 920.922C1050.55 920.922 1050.97 920.714 1051.22 920.297C1051.48 919.867 1051.61 919.327 1051.61 918.676V904.359C1051.61 902.654 1051.06 901.801 1049.97 901.801C1048.87 901.801 1048.32 902.654 1048.32 904.359V918.676C1048.32 919.327 1048.45 919.867 1048.7 920.297C1048.96 920.714 1049.38 920.922 1049.97 920.922ZM1070.14 926.312C1066.86 926.312 1064.53 925.473 1063.15 923.793C1061.78 922.113 1061.1 919.646 1061.1 916.391V907.367C1061.1 904.919 1061.36 902.882 1061.88 901.254C1062.4 899.626 1063.31 898.409 1064.61 897.602C1065.92 896.794 1067.73 896.391 1070.04 896.391C1071.66 896.391 1073.1 896.677 1074.38 897.25C1075.67 897.823 1076.68 898.663 1077.43 899.77C1078.17 900.876 1078.54 902.23 1078.54 903.832V908.305H1071.41V904.203C1071.41 903.526 1071.31 902.96 1071.12 902.504C1070.92 902.035 1070.5 901.801 1069.85 901.801C1068.7 901.801 1068.13 902.615 1068.13 904.242V918.441C1068.13 919.04 1068.26 919.594 1068.52 920.102C1068.78 920.596 1069.21 920.844 1069.81 920.844C1070.42 920.844 1070.84 920.603 1071.08 920.121C1071.33 919.626 1071.45 919.053 1071.45 918.402V913.48H1078.54V918.598C1078.54 920.212 1078.17 921.599 1077.45 922.758C1076.73 923.904 1075.74 924.783 1074.48 925.395C1073.21 926.007 1071.77 926.312 1070.14 926.312ZM1069.46 938.324C1068.12 938.324 1066.83 938.064 1065.59 937.543V933.188C1065.99 933.318 1066.39 933.422 1066.78 933.5C1067.17 933.591 1067.54 933.637 1067.9 933.637C1068.55 933.637 1069.09 933.461 1069.52 933.109C1069.96 932.771 1070.18 932.178 1070.18 931.332C1070.18 930.603 1070 929.77 1069.63 928.832C1069.28 927.895 1068.79 926.951 1068.15 926H1071.29C1072.56 927.107 1073.53 928.337 1074.22 929.691C1074.93 931.059 1075.28 932.348 1075.28 933.559C1075.28 934.9 1074.82 936.026 1073.89 936.938C1072.97 937.862 1071.49 938.324 1069.46 938.324ZM1089.5 926.312C1083.66 926.312 1080.75 923.285 1080.75 917.23V905.473C1080.75 902.712 1081.52 900.512 1083.07 898.871C1084.62 897.217 1086.76 896.391 1089.5 896.391C1092.24 896.391 1094.39 897.217 1095.94 898.871C1097.49 900.512 1098.27 902.712 1098.27 905.473V917.23C1098.27 923.285 1095.34 926.312 1089.5 926.312ZM1089.5 920.922C1090.08 920.922 1090.5 920.714 1090.75 920.297C1091.01 919.867 1091.14 919.327 1091.14 918.676V904.359C1091.14 902.654 1090.59 901.801 1089.5 901.801C1088.4 901.801 1087.86 902.654 1087.86 904.359V918.676C1087.86 919.327 1087.98 919.867 1088.23 920.297C1088.49 920.714 1088.91 920.922 1089.5 920.922ZM1116 926.312C1114.65 926.312 1113.57 926.065 1112.78 925.57C1111.98 925.076 1111.39 924.392 1111 923.52C1110.61 922.647 1110.35 921.625 1110.22 920.453C1110.1 919.281 1110.04 918.025 1110.04 916.684V903.949C1110.04 901.697 1110.44 899.874 1111.23 898.48C1112.04 897.087 1113.4 896.391 1115.32 896.391C1116.74 896.391 1117.82 896.697 1118.58 897.309C1119.35 897.908 1119.94 898.747 1120.36 899.828V891.625H1127.47V926H1120.36V922.895C1119.97 923.949 1119.44 924.783 1118.79 925.395C1118.16 926.007 1117.22 926.312 1116 926.312ZM1118.68 920.844C1119.34 920.844 1119.78 920.577 1120 920.043C1120.24 919.509 1120.36 918.552 1120.36 917.172V904.848C1120.36 904.158 1120.25 903.48 1120.04 902.816C1119.85 902.139 1119.41 901.801 1118.72 901.801C1117.96 901.801 1117.48 902.12 1117.29 902.758C1117.09 903.396 1117 904.092 1117 904.848V917.172C1117 919.62 1117.56 920.844 1118.68 920.844ZM1138.36 926.312C1136.28 926.312 1134.62 925.922 1133.38 925.141C1132.15 924.359 1131.26 923.233 1130.73 921.762C1130.19 920.29 1129.93 918.52 1129.93 916.449V904.672C1129.93 901.951 1130.71 899.893 1132.27 898.5C1133.83 897.094 1135.98 896.391 1138.72 896.391C1144.34 896.391 1147.15 899.151 1147.15 904.672V906.801C1147.15 909.379 1147.13 911.111 1147.07 911.996H1136.92V917.66C1136.92 918.181 1136.95 918.695 1137.02 919.203C1137.08 919.698 1137.22 920.108 1137.45 920.434C1137.68 920.759 1138.05 920.922 1138.56 920.922C1139.29 920.922 1139.74 920.609 1139.93 919.984C1140.11 919.346 1140.2 918.52 1140.2 917.504V914.691H1147.15V916.352C1147.15 918.539 1146.88 920.375 1146.33 921.859C1145.8 923.331 1144.89 924.444 1143.6 925.199C1142.32 925.941 1140.58 926.312 1138.36 926.312ZM1136.88 908.52H1140.2V904.574C1140.2 903.52 1140.07 902.764 1139.81 902.309C1139.55 901.84 1139.16 901.605 1138.64 901.605C1138.08 901.605 1137.64 901.827 1137.33 902.27C1137.03 902.712 1136.88 903.48 1136.88 904.574V908.52ZM1164.83 926.312C1163.47 926.312 1162.4 926.065 1161.61 925.57C1160.81 925.076 1160.22 924.392 1159.83 923.52C1159.44 922.647 1159.18 921.625 1159.05 920.453C1158.93 919.281 1158.87 918.025 1158.87 916.684V903.949C1158.87 901.697 1159.27 899.874 1160.06 898.48C1160.87 897.087 1162.23 896.391 1164.15 896.391C1165.56 896.391 1166.65 896.697 1167.41 897.309C1168.17 897.908 1168.77 898.747 1169.18 899.828V891.625H1176.29V926H1169.18V922.895C1168.79 923.949 1168.27 924.783 1167.62 925.395C1166.98 926.007 1166.05 926.312 1164.83 926.312ZM1167.5 920.844C1168.17 920.844 1168.61 920.577 1168.83 920.043C1169.07 919.509 1169.18 918.552 1169.18 917.172V904.848C1169.18 904.158 1169.08 903.48 1168.87 902.816C1168.68 902.139 1168.23 901.801 1167.54 901.801C1166.79 901.801 1166.31 902.12 1166.12 902.758C1165.92 903.396 1165.82 904.092 1165.82 904.848V917.172C1165.82 919.62 1166.38 920.844 1167.5 920.844ZM1178.99 926V896.703H1186.1V899.965C1186.44 898.832 1187.04 897.947 1187.9 897.309C1188.75 896.671 1189.84 896.352 1191.14 896.352V902.191C1190.56 902.191 1189.88 902.257 1189.09 902.387C1188.29 902.504 1187.6 902.673 1187 902.895C1186.4 903.103 1186.1 903.337 1186.1 903.598V926H1178.99ZM1201.06 926.312C1198.98 926.312 1197.32 925.922 1196.08 925.141C1194.84 924.359 1193.96 923.233 1193.42 921.762C1192.89 920.29 1192.62 918.52 1192.62 916.449V904.672C1192.62 901.951 1193.4 899.893 1194.97 898.5C1196.53 897.094 1198.68 896.391 1201.41 896.391C1207.04 896.391 1209.85 899.151 1209.85 904.672V906.801C1209.85 909.379 1209.82 911.111 1209.77 911.996H1199.61V917.66C1199.61 918.181 1199.65 918.695 1199.71 919.203C1199.78 919.698 1199.92 920.108 1200.14 920.434C1200.38 920.759 1200.75 920.922 1201.25 920.922C1201.98 920.922 1202.44 920.609 1202.62 919.984C1202.8 919.346 1202.9 918.52 1202.9 917.504V914.691H1209.85V916.352C1209.85 918.539 1209.57 920.375 1209.03 921.859C1208.49 923.331 1207.58 924.444 1206.29 925.199C1205.02 925.941 1203.27 926.312 1201.06 926.312ZM1199.57 908.52H1202.9V904.574C1202.9 903.52 1202.76 902.764 1202.5 902.309C1202.24 901.84 1201.85 901.605 1201.33 901.605C1200.77 901.605 1200.34 901.827 1200.02 902.27C1199.72 902.712 1199.57 903.48 1199.57 904.574V908.52ZM1212.39 926V896.703H1219.38V900.434C1219.64 899.314 1220.12 898.363 1220.82 897.582C1221.54 896.788 1222.53 896.391 1223.79 896.391C1225.82 896.391 1227.3 897.016 1228.21 898.266C1229.13 899.516 1229.59 901.228 1229.59 903.402V926H1222.7V904.125C1222.7 903.552 1222.58 903.025 1222.35 902.543C1222.11 902.048 1221.71 901.801 1221.14 901.801C1220.6 901.801 1220.21 901.99 1219.95 902.367C1219.7 902.732 1219.54 903.194 1219.48 903.754C1219.41 904.301 1219.38 904.848 1219.38 905.395V926H1212.39ZM1237.68 926.312C1236.05 926.312 1234.81 925.935 1233.95 925.18C1233.1 924.424 1232.52 923.389 1232.21 922.074C1231.9 920.759 1231.74 919.268 1231.74 917.602C1231.74 915.818 1231.92 914.359 1232.27 913.227C1232.62 912.081 1233.22 911.143 1234.07 910.414C1234.93 909.685 1236.1 909.066 1237.6 908.559L1241.94 907.074V904.066C1241.94 902.491 1241.42 901.703 1240.4 901.703C1239.46 901.703 1238.99 902.341 1238.99 903.617V905.375H1232.19C1232.18 905.271 1232.17 905.141 1232.17 904.984C1232.17 904.815 1232.17 904.626 1232.17 904.418C1232.17 901.501 1232.86 899.438 1234.22 898.227C1235.6 897.003 1237.78 896.391 1240.77 896.391C1242.33 896.391 1243.73 896.671 1244.97 897.23C1246.2 897.777 1247.18 898.591 1247.9 899.672C1248.62 900.753 1248.99 902.087 1248.99 903.676V926H1242.04V922.523C1241.7 923.747 1241.14 924.685 1240.36 925.336C1239.57 925.987 1238.68 926.312 1237.68 926.312ZM1240.43 920.883C1241.01 920.883 1241.4 920.642 1241.61 920.16C1241.81 919.678 1241.92 919.158 1241.92 918.598V910.434C1240.95 910.824 1240.21 911.319 1239.67 911.918C1239.14 912.504 1238.87 913.37 1238.87 914.516V918.285C1238.87 920.017 1239.39 920.883 1240.43 920.883ZM1259.57 931.078C1258.22 931.078 1257.06 931.007 1256.08 930.863C1255.12 930.733 1254.25 930.492 1253.48 930.141C1252.71 929.789 1251.94 929.294 1251.18 928.656L1253.54 924.613C1255.25 925.629 1256.95 926.137 1258.66 926.137C1259.78 926.137 1260.61 925.779 1261.16 925.062C1261.7 924.346 1261.98 923.415 1261.98 922.27V919.398C1261.42 921.404 1259.93 922.406 1257.5 922.406C1256.11 922.406 1254.98 922.074 1254.13 921.41C1253.27 920.746 1252.64 919.848 1252.25 918.715C1251.86 917.582 1251.66 916.319 1251.66 914.926V904.398C1251.66 902.823 1251.83 901.436 1252.17 900.238C1252.51 899.027 1253.1 898.083 1253.95 897.406C1254.8 896.729 1255.98 896.391 1257.5 896.391C1258.79 896.391 1259.8 896.716 1260.51 897.367C1261.24 898.018 1261.73 898.897 1261.98 900.004V896.703H1269.11V921.82C1269.11 925.141 1268.34 927.51 1266.8 928.93C1265.28 930.362 1262.87 931.078 1259.57 931.078ZM1260.34 917.133C1261.43 917.133 1261.98 916.143 1261.98 914.164V904.203C1261.98 903.669 1261.82 903.122 1261.51 902.562C1261.21 902.003 1260.79 901.723 1260.26 901.723C1259.58 901.723 1259.16 901.977 1258.99 902.484C1258.82 902.979 1258.73 903.552 1258.73 904.203V914.164C1258.73 914.867 1258.82 915.538 1258.99 916.176C1259.17 916.814 1259.62 917.133 1260.34 917.133ZM1280.04 926.312C1277.96 926.312 1276.3 925.922 1275.06 925.141C1273.83 924.359 1272.94 923.233 1272.41 921.762C1271.87 920.29 1271.61 918.52 1271.61 916.449V904.672C1271.61 901.951 1272.39 899.893 1273.95 898.5C1275.51 897.094 1277.66 896.391 1280.4 896.391C1286.02 896.391 1288.83 899.151 1288.83 904.672V906.801C1288.83 909.379 1288.81 911.111 1288.75 911.996H1278.6V917.66C1278.6 918.181 1278.63 918.695 1278.7 919.203C1278.76 919.698 1278.9 920.108 1279.13 920.434C1279.36 920.759 1279.73 920.922 1280.24 920.922C1280.97 920.922 1281.42 920.609 1281.61 919.984C1281.79 919.346 1281.88 918.52 1281.88 917.504V914.691H1288.83V916.352C1288.83 918.539 1288.56 920.375 1288.01 921.859C1287.48 923.331 1286.57 924.444 1285.28 925.199C1284 925.941 1282.26 926.312 1280.04 926.312ZM1278.56 908.52H1281.88V904.574C1281.88 903.52 1281.75 902.764 1281.49 902.309C1281.23 901.84 1280.84 901.605 1280.32 901.605C1279.76 901.605 1279.32 901.827 1279.01 902.27C1278.71 902.712 1278.56 903.48 1278.56 904.574V908.52ZM1291.37 926V896.703H1298.21V900.102C1298.52 898.904 1299.05 897.986 1299.81 897.348C1300.56 896.71 1301.67 896.391 1303.13 896.391C1304.3 896.391 1305.3 896.664 1306.12 897.211C1306.95 897.745 1307.54 898.454 1307.88 899.34C1308.41 898.376 1309.03 897.647 1309.75 897.152C1310.48 896.645 1311.51 896.391 1312.86 896.391C1314.48 896.391 1315.73 896.742 1316.61 897.445C1317.49 898.135 1318.1 899.099 1318.44 900.336C1318.79 901.56 1318.97 902.979 1318.97 904.594V926H1312V904.477C1312 902.589 1311.51 901.645 1310.55 901.645C1310.04 901.645 1309.65 901.82 1309.38 902.172C1309.11 902.51 1308.92 902.934 1308.81 903.441C1308.71 903.949 1308.66 904.457 1308.66 904.965V926H1301.68V904.477C1301.68 903.865 1301.61 903.253 1301.45 902.641C1301.31 902.029 1300.93 901.723 1300.32 901.723C1299.8 901.723 1299.39 901.911 1299.11 902.289C1298.82 902.667 1298.62 903.135 1298.52 903.695C1298.42 904.242 1298.36 904.783 1298.36 905.316V926H1291.37Z" fill="#FFF8E8"/>
<rect x="1270" y="267.787" width="408" height="337.213" fill="#FFF8E8"/>
<path d="M1477 20L1735 307.842H1219L1477 20Z" fill="#6A3434"/>
<rect x="1312" y="364.666" width="149" height="95.0159" fill="#D9D9D9"/>
<rect x="1526" y="422.42" width="91" height="167.675" fill="#D9D9D9"/>
</g>
<defs>
<filter id="filter0_d_4_40" x="0" y="0" width="1791" height="1029" filterUnits="userSpaceOnUse" color-interpolation-filters="sRGB">
<feFlood flood-opacity="0" result="BackgroundImageFix"/>
<feColorMatrix in="SourceAlpha" type="matrix" values="0 0 0 0 0 0 0 0 0 0 0 0 0 0 0 0 0 0 127 0" result="hardAlpha"/>
<feOffset dy="10"/>
<feGaussianBlur stdDeviation="15"/>
<feComposite in2="hardAlpha" operator="out"/>
<feColorMatrix type="matrix" values="0 0 0 0 0 0 0 0 0 0 0 0 0 0 0 0 0 0 0.25 0"/>
<feBlend mode="normal" in2="BackgroundImageFix" result="effect1_dropShadow_4_40"/>
<feBlend mode="normal" in="SourceGraphic" in2="effect1_dropShadow_4_40" result="shape"/>
</filter>
</defs>
</svg>
